<svg id="Layer_1" data-name="Layer 1" xmlns="http://www.w3.org/2000/svg" viewBox="0 0 244.76 82.94"><defs><style>.cls-1{fill:#231f20;}.cls-2{fill:#6b3833;}.cls-3{fill:#404040;}.cls-4{fill:#262626;stroke:#4d4d4f;stroke-width:0.53px;}.cls-5{fill:#dbc9c6;}</style></defs><title>jim-coleman_logo</title><path class="cls-1" d="M62.2,52.45a4.45,4.45,0,0,1-.86,3.2,2.88,2.88,0,0,1-2.81.92l-0.1-1c1.65,0.38,2.66-.61,2.66-2.78V38.17H62.2V52.45Z" transform="translate(-7.18 -7.84)"/><path class="cls-1" d="M67.44,52.45H66.33V38.17h1.11V52.45Z" transform="translate(-7.18 -7.84)"/><path class="cls-1" d="M83.62,38.17h1.11V52.45H83.62V39.79h0l-5.4,6.68-5.4-6.68h0V52.45H71.62V38.17h1.11l5.44,6.64Z" transform="translate(-7.18 -7.84)"/><path class="cls-2" d="M107.84,41.36a9.4,9.4,0,0,0-4.92-1.49,5.43,5.43,0,0,0-5.69,5.46c0,3.2,2.35,5.42,5.78,5.42a9.35,9.35,0,0,0,5-1.61v2.24a10.46,10.46,0,0,1-5.17,1.26,7.3,7.3,0,0,1-7.7-7.12c0-4.35,3.29-7.54,7.83-7.54a12.41,12.41,0,0,1,4.9,1.17v2.2Z" transform="translate(-7.18 -7.84)"/><path class="cls-2" d="M118.5,38c4.71,0,7.68,3.35,7.68,7.33A7.68,7.68,0,1,1,118.5,38Zm0,12.77a5.44,5.44,0,1,0-5.55-5.44A5.36,5.36,0,0,0,118.5,50.76Z" transform="translate(-7.18 -7.84)"/><path class="cls-2" d="M131.69,50.61h6.45v1.84h-8.5V38.17h2.05V50.61Z" transform="translate(-7.18 -7.84)"/><path class="cls-2" d="M149,40h-6v4.31h5.84v1.84h-5.84v4.44h6.24v1.84h-8.29V38.17H149V40Z" transform="translate(-7.18 -7.84)"/><path class="cls-2" d="M165.58,52.45h-2.05V41.34h0l-4.4,5.53h-0.33l-4.4-5.53h0V52.45h-2.05V38.17h1.93L158.92,44l4.75-5.86h1.9V52.45Z" transform="translate(-7.18 -7.84)"/><path class="cls-2" d="M182,52.45h-2.09L178,48.24h-6.07l-1.8,4.21H168l6.13-14.36h1.44Zm-9.27-6.05h4.44l-2.3-5.17Z" transform="translate(-7.18 -7.84)"/><path class="cls-2" d="M197.75,52.45H196l-9.55-11v11h-1.93V38.17h1.63l9.67,11.05V38.17h1.93V52.45Z" transform="translate(-7.18 -7.84)"/><path class="cls-1" d="M202.82,52a3.58,3.58,0,0,1-1.36,2.89V54.17a2.68,2.68,0,0,0,.44-1.72h-0.44v-2h1.36V52Z" transform="translate(-7.18 -7.84)"/><path class="cls-1" d="M216.72,38.17c6.07,0,7.79,4,7.79,7.14,0,3.31-1.95,7.14-7.6,7.14h-5.19V38.17h5Zm-3.89,13.36h4c3.43,0,6.47-2.2,6.47-6.22,0-3.66-2.66-6.22-6.53-6.22h-4V51.53Z" transform="translate(-7.18 -7.84)"/><path class="cls-1" d="M233.18,38.17c6.07,0,7.79,4,7.79,7.14,0,3.31-1.95,7.14-7.6,7.14h-5.19V38.17h5Zm-3.89,13.36h4c3.43,0,6.47-2.2,6.47-6.22,0-3.66-2.66-6.22-6.53-6.22h-4V51.53Z" transform="translate(-7.18 -7.84)"/><path class="cls-1" d="M251.35,40.1a6,6,0,0,0-3.2-1.09,2.82,2.82,0,0,0-3,2.72c0,3.81,6.8,2,6.8,7a4,4,0,0,1-4.15,3.91,6.65,6.65,0,0,1-3.66-1.26v-1.3c1.59,1.15,2.49,1.53,3.6,1.53a2.89,2.89,0,0,0,3-2.85c0-4.06-6.8-2.28-6.8-7A3.94,3.94,0,0,1,248,38a6.79,6.79,0,0,1,3.31.9V40.1Z" transform="translate(-7.18 -7.84)"/><path class="cls-3" d="M60.71,66.9l-0.57,1.68H60.2a20.07,20.07,0,0,1,1.4-2.26,1.44,1.44,0,0,1,1-.69,0.57,0.57,0,0,1,.53.66,1.66,1.66,0,0,1-.28.8c-0.16.2-.37,0.21-0.43-0.07s-0.15-.52-0.28-0.52a0.8,0.8,0,0,0-.47.4,23.15,23.15,0,0,0-2.27,4.21,0.24,0.24,0,0,1-.23.16c-0.15,0-.53-0.05-0.44-0.35,0.17-.53,1-2.9,1.38-4.21,0-.15,0-0.28-0.11-0.28a1.49,1.49,0,0,0-.95.69,0.17,0.17,0,0,1-.21-0.21,2.09,2.09,0,0,1,1.58-1.28C61.07,65.63,60.83,66.54,60.71,66.9Z" transform="translate(-7.18 -7.84)"/><path class="cls-3" d="M67.44,66.43c0,1-1.32,1.68-3.25,2.22A3.36,3.36,0,0,0,64,69.84a0.68,0.68,0,0,0,.64.76,2.2,2.2,0,0,0,1.4-.77,0.18,0.18,0,0,1,.17.23,2.73,2.73,0,0,1-2.14,1.22A1.21,1.21,0,0,1,63,69.87a5,5,0,0,1,2-3.59,2.57,2.57,0,0,1,1.6-.64A0.84,0.84,0,0,1,67.44,66.43Zm-2.13.25a5.31,5.31,0,0,0-1,1.56,3.88,3.88,0,0,0,1.79-1,1.51,1.51,0,0,0,.52-0.91A0.29,0.29,0,0,0,66.33,66,1.58,1.58,0,0,0,65.31,66.69Z" transform="translate(-7.18 -7.84)"/><path class="cls-3" d="M68.92,70.21c-0.11.31-.09,0.44,0.05,0.44a4.26,4.26,0,0,0,1.54-1.35,0.17,0.17,0,0,1,.21.19,3,3,0,0,1-2.3,1.78c-0.4,0-.52-0.19-0.52-0.4a4,4,0,0,1,.29-1.14l2.13-6.32c0.32-.94.19-1.07,0-1.16l-0.24-.11a0.14,0.14,0,0,1,0-.21,7.78,7.78,0,0,1,1.68-.4l0.07,0.08c-0.17.48-.31,0.86-0.79,2.3Z" transform="translate(-7.18 -7.84)"/><path class="cls-3" d="M76.18,65.32a0.56,0.56,0,0,1,.65.2C76.63,66,75.47,69,75,70.19c-0.08.23,0,.31,0.09,0.31a3,3,0,0,0,1.38-.9,0.18,0.18,0,0,1,.19.17,3.49,3.49,0,0,1-2.25,1.5,0.37,0.37,0,0,1-.39-0.36,1.72,1.72,0,0,1,.13-0.52l0.44-1.2h0a5.58,5.58,0,0,1-2.94,2.1,0.67,0.67,0,0,1-.59-0.75A7.2,7.2,0,0,1,74,66.2a2.34,2.34,0,0,1,1.2-.39,0.66,0.66,0,0,1,.32.08,0.77,0.77,0,0,1,.27.28Zm-2.33,1.52a5.93,5.93,0,0,0-1.67,3.46,0.22,0.22,0,0,0,.2.25,3,3,0,0,0,1.3-.87,6.47,6.47,0,0,0,1.79-2.89,0.7,0.7,0,0,0-.67-0.48A1.39,1.39,0,0,0,73.85,66.85Z" transform="translate(-7.18 -7.84)"/><path class="cls-3" d="M79,67.19a0.89,0.89,0,0,0-.37-0.63,1.29,1.29,0,0,0-.6.68,0.16,0.16,0,0,1-.24-0.19A2.16,2.16,0,0,1,79,65.63a0.78,0.78,0,0,1,.59.69l0.57,1.56c0.12-.13.24-0.31,0.91-1.1a2.48,2.48,0,0,1,1.51-1.16,0.57,0.57,0,0,1,.53.63,0.74,0.74,0,0,1-.53.78,0.23,0.23,0,0,1-.19-0.23,0.38,0.38,0,0,0-.28-0.33c-0.24,0-.6.37-1.8,1.83l0.49,1.27a1.1,1.1,0,0,0,.48.76,1.49,1.49,0,0,0,.63-0.79c0.09-.11.29-0.05,0.28,0.08-0.19.87-.65,1.64-1.16,1.64a1.12,1.12,0,0,1-.79-0.94l-0.51-1.27c-0.21.21-.63,0.72-1,1.15a2.27,2.27,0,0,1-1.44,1.06,0.46,0.46,0,0,1-.48-0.48,1.14,1.14,0,0,1,.39-0.8,0.41,0.41,0,0,1,.29-0.15,0.21,0.21,0,0,1,.13.17,0.38,0.38,0,0,0,.24.37A1.2,1.2,0,0,0,78.45,70c0.39-.41.72-0.83,1.15-1.34Z" transform="translate(-7.18 -7.84)"/><path class="cls-3" d="M84.8,70.41a0.79,0.79,0,0,1-.76.86,0.56,0.56,0,0,1-.59-0.63,0.8,0.8,0,0,1,.76-0.83A0.57,0.57,0,0,1,84.8,70.41Z" transform="translate(-7.18 -7.84)"/><path class="cls-3" d="M92.83,66.9l-0.57,1.68h0.07a20.07,20.07,0,0,1,1.4-2.26,1.44,1.44,0,0,1,1-.69,0.57,0.57,0,0,1,.53.66,1.66,1.66,0,0,1-.28.8c-0.16.2-.37,0.21-0.43-0.07s-0.15-.52-0.28-0.52a0.8,0.8,0,0,0-.47.4,23.15,23.15,0,0,0-2.27,4.21,0.24,0.24,0,0,1-.23.16c-0.15,0-.53-0.05-0.44-0.35,0.17-.53,1-2.9,1.38-4.21,0-.15,0-0.28-0.11-0.28a1.49,1.49,0,0,0-.95.69,0.17,0.17,0,0,1-.21-0.21,2.09,2.09,0,0,1,1.58-1.28C93.19,65.63,93,66.54,92.83,66.9Z" transform="translate(-7.18 -7.84)"/><path class="cls-3" d="M99.56,66.43c0,1-1.32,1.68-3.25,2.22a3.36,3.36,0,0,0-.19,1.19,0.68,0.68,0,0,0,.64.76,2.2,2.2,0,0,0,1.4-.77,0.18,0.18,0,0,1,.17.23,2.73,2.73,0,0,1-2.14,1.22,1.21,1.21,0,0,1-1.08-1.4,5,5,0,0,1,2-3.59,2.57,2.57,0,0,1,1.6-.64A0.84,0.84,0,0,1,99.56,66.43Zm-2.13.25a5.31,5.31,0,0,0-1,1.56,3.88,3.88,0,0,0,1.79-1,1.51,1.51,0,0,0,.52-0.91A0.29,0.29,0,0,0,98.45,66,1.58,1.58,0,0,0,97.43,66.69Z" transform="translate(-7.18 -7.84)"/><path class="cls-3" d="M101.76,68.52l0,0c0.95-1.44,2.27-2.91,3.27-2.91a0.66,0.66,0,0,1,.75.72,3.67,3.67,0,0,1-.21.94c-0.24.67-1.2,2.85-1.24,3s-0.07.25,0,.25a2.76,2.76,0,0,0,1.26-.91,0.16,0.16,0,0,1,.21.19,3.13,3.13,0,0,1-2.3,1.5,0.4,0.4,0,0,1-.32-0.33,3,3,0,0,1,.32-0.88c0.28-.66.78-2,1.08-2.63a3.15,3.15,0,0,0,.28-1c0-.16,0-0.32-0.21-0.32a4.35,4.35,0,0,0-1.84,1.59,22.09,22.09,0,0,0-2,3.39,0.24,0.24,0,0,1-.24.16c-0.15,0-.51,0-0.39-0.35l1.55-4.21c0.07-.17.07-0.31,0-0.31a2.33,2.33,0,0,0-1.22.67,0.17,0.17,0,0,1-.16-0.2,2.84,2.84,0,0,1,2-1.24,0.36,0.36,0,0,1,.35.55Z" transform="translate(-7.18 -7.84)"/><path class="cls-3" d="M111.36,66.43c0,1-1.32,1.68-3.25,2.22a3.36,3.36,0,0,0-.19,1.19,0.68,0.68,0,0,0,.64.76,2.2,2.2,0,0,0,1.4-.77,0.18,0.18,0,0,1,.17.23A2.73,2.73,0,0,1,108,71.27a1.21,1.21,0,0,1-1.08-1.4,5,5,0,0,1,2-3.59,2.57,2.57,0,0,1,1.6-.64A0.84,0.84,0,0,1,111.36,66.43Zm-2.13.25a5.31,5.31,0,0,0-1,1.56,3.88,3.88,0,0,0,1.79-1,1.51,1.51,0,0,0,.52-0.91,0.29,0.29,0,0,0-.31-0.31A1.58,1.58,0,0,0,109.23,66.69Z" transform="translate(-7.18 -7.84)"/><path class="cls-3" d="M113.49,66.9c0.12-.31.15-0.49,0-0.49a2.6,2.6,0,0,0-1.23.94,0.21,0.21,0,0,1-.2-0.23,3.18,3.18,0,0,1,2.11-1.48,0.59,0.59,0,0,1,.4.88l-1.06,2.79a2.89,2.89,0,0,0-.25.95,0.28,0.28,0,0,0,.29.32c0.6,0,1.63-1.32,2.1-2a7,7,0,0,0,.87-2.14,0.82,0.82,0,0,1,.63-0.72,0.37,0.37,0,0,1,.4.37,3.27,3.27,0,0,1-.47,1.2,6.69,6.69,0,0,0-.72,2.73,0.48,0.48,0,0,0,.49.59,2.73,2.73,0,0,0,1.66-1.28,4.16,4.16,0,0,0,.83-2.23,3.25,3.25,0,0,0-.12-0.95,0.51,0.51,0,0,1,.49-0.48,0.69,0.69,0,0,1,.52.83,5.54,5.54,0,0,1-1.46,3.18,4,4,0,0,1-2.55,1.63,0.86,0.86,0,0,1-.75-0.76,4.18,4.18,0,0,1,.23-1.14c0.07-.21,0-0.2-0.19,0-0.63.86-1.74,1.88-2.54,1.88a0.76,0.76,0,0,1-.68-0.72,3.23,3.23,0,0,1,.23-1Z" transform="translate(-7.18 -7.84)"/><path class="cls-3" d="M121.36,70.41a0.79,0.79,0,0,1-.76.86,0.56,0.56,0,0,1-.59-0.63,0.8,0.8,0,0,1,.76-0.83A0.57,0.57,0,0,1,121.36,70.41Z" transform="translate(-7.18 -7.84)"/><path class="cls-3" d="M129.6,66.46L128.4,70c-0.08.25,0,.33,0.09,0.33A4.89,4.89,0,0,0,130,69.1a0.18,0.18,0,0,1,.19.24,4.42,4.42,0,0,1-2.57,1.92,0.4,0.4,0,0,1-.36-0.36,2.57,2.57,0,0,1,.19-0.76l1.26-3.69h-1a0.33,0.33,0,0,1,.15-0.37l1.07-.19,0.75-1.32a0.45,0.45,0,0,1,.51.08L129.76,66h1.46a0.39,0.39,0,0,1-.16.49H129.6Z" transform="translate(-7.18 -7.84)"/><path class="cls-3" d="M133.42,66.9l-0.57,1.68h0.07a20,20,0,0,1,1.4-2.26,1.44,1.44,0,0,1,1-.69,0.57,0.57,0,0,1,.53.66,1.66,1.66,0,0,1-.28.8c-0.16.2-.37,0.21-0.43-0.07s-0.15-.52-0.28-0.52a0.8,0.8,0,0,0-.47.4,23.13,23.13,0,0,0-2.27,4.21,0.24,0.24,0,0,1-.23.16c-0.15,0-.53-0.05-0.44-0.35,0.17-.53,1-2.9,1.38-4.21,0-.15,0-0.28-0.11-0.28a1.49,1.49,0,0,0-.95.69,0.17,0.17,0,0,1-.21-0.21,2.09,2.09,0,0,1,1.58-1.28C133.79,65.63,133.54,66.54,133.42,66.9Z" transform="translate(-7.18 -7.84)"/><path class="cls-3" d="M140.36,65.32a0.56,0.56,0,0,1,.65.2c-0.2.49-1.36,3.45-1.79,4.66-0.08.23,0,.31,0.09,0.31a3,3,0,0,0,1.38-.9,0.18,0.18,0,0,1,.19.17,3.49,3.49,0,0,1-2.24,1.5,0.37,0.37,0,0,1-.39-0.36,1.7,1.7,0,0,1,.13-0.52l0.44-1.2h0a5.58,5.58,0,0,1-2.94,2.1,0.67,0.67,0,0,1-.59-0.75,7.2,7.2,0,0,1,2.94-4.32,2.34,2.34,0,0,1,1.2-.39,0.66,0.66,0,0,1,.32.08,0.77,0.77,0,0,1,.27.28ZM138,66.85a5.93,5.93,0,0,0-1.67,3.46,0.22,0.22,0,0,0,.2.25,3,3,0,0,0,1.3-.87,6.47,6.47,0,0,0,1.79-2.89,0.7,0.7,0,0,0-.67-0.48A1.39,1.39,0,0,0,138,66.85Z" transform="translate(-7.18 -7.84)"/><path class="cls-3" d="M143.53,68.52l0,0c0.95-1.44,2.27-2.91,3.27-2.91a0.66,0.66,0,0,1,.75.72,3.69,3.69,0,0,1-.21.94c-0.24.67-1.2,2.85-1.24,3s-0.07.25,0,.25a2.76,2.76,0,0,0,1.26-.91,0.16,0.16,0,0,1,.21.19,3.13,3.13,0,0,1-2.3,1.5,0.4,0.4,0,0,1-.32-0.33,3,3,0,0,1,.32-0.88c0.28-.66.78-2,1.08-2.63a3.14,3.14,0,0,0,.28-1c0-.16,0-0.32-0.21-0.32a4.35,4.35,0,0,0-1.84,1.59,22.06,22.06,0,0,0-2,3.39,0.24,0.24,0,0,1-.24.16c-0.15,0-.51,0-0.39-0.35l1.55-4.21c0.07-.17.07-0.31,0-0.31a2.33,2.33,0,0,0-1.22.67,0.17,0.17,0,0,1-.16-0.2,2.84,2.84,0,0,1,2-1.24,0.36,0.36,0,0,1,.35.55Z" transform="translate(-7.18 -7.84)"/><path class="cls-3" d="M151.91,66.39a0.47,0.47,0,0,1-.24.41,0.22,0.22,0,0,1-.25-0.11,1,1,0,0,0-.82-0.43,0.54,0.54,0,0,0-.55.53,2.28,2.28,0,0,0,.45,1.22,2.4,2.4,0,0,1,.51,1.48,1.85,1.85,0,0,1-.69,1.28,2.06,2.06,0,0,1-1.35.48,0.79,0.79,0,0,1-.82-0.71,0.65,0.65,0,0,1,.2-0.44,0.27,0.27,0,0,1,.36,0,1.5,1.5,0,0,0,.92.53,0.73,0.73,0,0,0,.64-0.76,2.74,2.74,0,0,0-.49-1.18,2.7,2.7,0,0,1-.47-1.24,1.77,1.77,0,0,1,.8-1.4,1.74,1.74,0,0,1,1-.44A0.81,0.81,0,0,1,151.91,66.39Z" transform="translate(-7.18 -7.84)"/><path class="cls-3" d="M154.92,66.31c-0.08.23-.19,0.65-0.31,1.06-0.43,1.48-.81,3-1.26,4.44A5.63,5.63,0,0,1,152.3,74a2.27,2.27,0,0,1-1.52.68,0.8,0.8,0,0,1-.87-0.68,0.54,0.54,0,0,1,.25-0.48c0.19-.16.28-0.05,0.39,0.12a1,1,0,0,0,.8.49c0.24,0,.56-0.2.84-1.11,0.68-2.23,1.12-4.53,1.76-6.71h-1.11a0.33,0.33,0,0,1,.09-0.49h1.15a8.11,8.11,0,0,1,1.48-3.18,2.88,2.88,0,0,1,2.24-1.11,1,1,0,0,1,1.1.88,0.88,0.88,0,0,1-.57.83,0.22,0.22,0,0,1-.19-0.21,0.9,0.9,0,0,0-.81-1,1.36,1.36,0,0,0-1,.72A11.18,11.18,0,0,0,155,65.82h1.67a0.36,0.36,0,0,1-.13.49h-1.66Z" transform="translate(-7.18 -7.84)"/><path class="cls-3" d="M160.87,67.31a5.08,5.08,0,0,1-1.42,3,2.56,2.56,0,0,1-1.91.92c-0.86,0-1.42-.63-1.34-1.78a5,5,0,0,1,1.46-3,2.6,2.6,0,0,1,1.84-.87A1.38,1.38,0,0,1,160.87,67.31Zm-2.43-.64A7.72,7.72,0,0,0,157.1,70a0.68,0.68,0,0,0,.55.86,1.31,1.31,0,0,0,1.06-.69,8.24,8.24,0,0,0,1.24-3.26c0-.41-0.07-0.88-0.53-0.88A1.23,1.23,0,0,0,158.43,66.67Z" transform="translate(-7.18 -7.84)"/><path class="cls-3" d="M164.07,66.9l-0.57,1.68h0.07a20.11,20.11,0,0,1,1.4-2.26,1.44,1.44,0,0,1,1-.69,0.57,0.57,0,0,1,.53.66,1.66,1.66,0,0,1-.28.8c-0.16.2-.37,0.21-0.43-0.07s-0.15-.52-0.28-0.52a0.8,0.8,0,0,0-.47.4,23.17,23.17,0,0,0-2.27,4.21,0.24,0.24,0,0,1-.23.16c-0.15,0-.53-0.05-0.44-0.35,0.17-.53,1-2.9,1.38-4.21,0-.15,0-0.28-0.11-0.28a1.49,1.49,0,0,0-.95.69,0.17,0.17,0,0,1-.21-0.21,2.09,2.09,0,0,1,1.58-1.28C164.43,65.63,164.19,66.54,164.07,66.9Z" transform="translate(-7.18 -7.84)"/><path class="cls-3" d="M172.16,67.37l-0.51,1.23,0,0c1.28-2,2.3-3,3.18-3a0.66,0.66,0,0,1,.75.72,3.15,3.15,0,0,1-.21.94c-0.24.67-1.2,2.85-1.24,3s-0.07.25,0,.25a2.76,2.76,0,0,0,1.26-.91,0.16,0.16,0,0,1,.21.19,3.13,3.13,0,0,1-2.3,1.5,0.4,0.4,0,0,1-.32-0.33,2.94,2.94,0,0,1,.32-0.88c0.28-.66.82-2,1.08-2.63a3.57,3.57,0,0,0,.28-1c0-.16,0-0.32-0.21-0.32a3.92,3.92,0,0,0-1.75,1.6,24.81,24.81,0,0,0-2.1,3.38,0.26,0.26,0,0,1-.24.16c-0.15,0-.51,0-0.39-0.35l1.32-3.5c0.05-.15.59-1.3,0.11-1.3a4.23,4.23,0,0,0-1.86,1.6,21.56,21.56,0,0,0-2,3.38,0.24,0.24,0,0,1-.24.16c-0.15,0-.51,0-0.39-0.35,0-.11,1.47-4,1.52-4.21s0.05-.37-0.09-0.37a1.78,1.78,0,0,0-1.18.74,0.17,0.17,0,0,1-.19-0.2,2.29,2.29,0,0,1,2.06-1.24,0.35,0.35,0,0,1,.32.55l-0.92,2.42,0,0c1-1.58,2.22-3,3.23-3S172.42,66.69,172.16,67.37Z" transform="translate(-7.18 -7.84)"/><path class="cls-3" d="M178.09,70.41a0.8,0.8,0,0,1-.76.86,0.56,0.56,0,0,1-.59-0.63,0.8,0.8,0,0,1,.76-0.83A0.57,0.57,0,0,1,178.09,70.41Z" transform="translate(-7.18 -7.84)"/><path class="cls-4" d="M21.55,29.42l-0.61,11.8,3.93,8.17V40.31c14.55,17.87,4.76,42.84,1.35,50.21h6C51.39,48.73,21.55,29.42,21.55,29.42Z" transform="translate(-7.18 -7.84)"/><path class="cls-5" d="M30.63,20.25V34.16l5.14,6.35-0.3-8.77c15.78,23.2,6.12,51.16,3,58.77h6C63.87,43.25,30.63,20.25,30.63,20.25Z" transform="translate(-7.18 -7.84)"/><path class="cls-2" d="M18.53,49.37c-8.26-25.7,4.06-35.8,4.06-35.8L17.14,7.84S-0.37,21.69,11,51.2c7.4,19.16,2.41,34,0,39.31h7.33C22.64,81.34,27.24,70.2,18.53,49.37Z" transform="translate(-7.18 -7.84)"/></svg>